<svg width="18" height="19" viewBox="0 0 18 19" fill="none" xmlns="http://www.w3.org/2000/svg">
<path d="M9.00195 0C11.4439 0 11.749 0.0117144 12.7119 0.0537109C13.4591 0.0690522 14.1988 0.21099 14.8984 0.473633C15.4961 0.704864 16.0389 1.05868 16.4922 1.51172C16.9456 1.96494 17.2998 2.50863 17.5312 3.10645C17.7981 3.81555 17.9405 4.56568 17.9521 5.32324C18.0081 6.28005 18.0078 6.59042 18.0078 9.0332C18.0078 11.476 17.9951 11.7812 17.9521 12.7432C17.9371 13.491 17.7961 14.2289 17.5332 14.9287C17.3014 15.5265 16.9475 16.0701 16.4941 16.5234C16.0409 16.9766 15.4979 17.3297 14.9004 17.5615C14.2006 17.8237 13.461 17.9663 12.7139 17.9814C11.759 18.0364 11.4458 18.0361 9.00391 18.0361C6.56199 18.0361 6.25693 18.0234 5.29395 17.9814C4.54548 17.9568 3.80668 17.8043 3.10938 17.5312C2.51157 17.2999 1.96813 16.9462 1.51465 16.4932C1.06117 16.04 0.706489 15.4971 0.474609 14.8994C0.211609 14.1984 0.0706641 13.4599 0.0556641 12.7119C-0.000329788 11.755 0 11.4439 0 9.00195C1.65781e-07 6.559 0.0126646 6.25398 0.0556641 5.29199C0.0702751 4.54501 0.212039 3.8059 0.474609 3.10645C0.705838 2.50847 1.06024 1.96498 1.51367 1.51172C1.96707 1.05854 2.51041 0.704605 3.1084 0.473633C3.80702 0.210348 4.54555 0.0682647 5.29199 0.0537109C6.24698 -0.000288229 6.56 0 9.00195 0ZM8.96582 1.58301C6.52899 1.58301 6.26152 1.5947 5.31055 1.6377C4.74072 1.64571 4.17605 1.75141 3.6416 1.94922C2.8528 2.25128 2.2278 2.87227 1.92285 3.66113C1.72359 4.2014 1.61881 4.77186 1.6123 5.34766C1.55931 6.31665 1.55859 6.566 1.55859 9.00293C1.55859 11.4389 1.5693 11.7072 1.6123 12.6572C1.62164 13.227 1.72632 13.7913 1.92285 14.3262C2.07369 14.7157 2.3045 15.0695 2.60059 15.3643C2.89662 15.6589 3.25141 15.8881 3.6416 16.0371C4.17578 16.2359 4.74063 16.3406 5.31055 16.3477C6.27852 16.4027 6.52799 16.4033 8.96582 16.4033C11.4018 16.4033 11.6701 16.3917 12.6201 16.3477C13.1904 16.3403 13.7553 16.2355 14.29 16.0371C14.679 15.8872 15.0323 15.657 15.3271 15.3623C15.6218 15.0677 15.8518 14.7149 16.002 14.3262C16.2013 13.7854 16.307 13.214 16.3135 12.6377V12.6387H16.3242C16.3672 11.683 16.3672 11.4207 16.3672 8.98535C16.3672 6.54844 16.3565 6.281 16.3135 5.33008C16.3042 4.76027 16.1985 4.19605 16.002 3.66113C15.8517 3.27224 15.6219 2.91883 15.3271 2.62402C15.0323 2.32922 14.6789 2.09949 14.29 1.94922C13.7554 1.7503 13.1905 1.64457 12.6201 1.6377C11.6531 1.5827 11.4028 1.58301 8.96582 1.58301ZM8.99707 4.37207C10.2234 4.37209 11.3995 4.85941 12.2666 5.72656C13.1337 6.59373 13.6211 7.76975 13.6211 8.99609C13.6211 10.2224 13.1337 11.3985 12.2666 12.2656C11.3995 13.1328 10.2234 13.6201 8.99707 13.6201C7.77073 13.6201 6.5947 13.1328 5.72754 12.2656C4.86038 11.3985 4.37305 10.2224 4.37305 8.99609C4.37305 7.76973 4.86037 6.59373 5.72754 5.72656C6.59471 4.85941 7.77072 4.37207 8.99707 4.37207ZM8.99707 5.99121C8.20037 5.99121 7.43641 6.30774 6.87305 6.87109C6.30969 7.43445 5.99316 8.19841 5.99316 8.99512C5.99318 9.79181 6.3097 10.5558 6.87305 11.1191C7.4364 11.6825 8.20039 11.999 8.99707 11.999C9.79376 11.999 10.5578 11.6825 11.1211 11.1191C11.6844 10.5558 12.001 9.79181 12.001 8.99512C12.001 8.19843 11.6844 7.43445 11.1211 6.87109C10.5578 6.30775 9.79376 5.99123 8.99707 5.99121ZM13.8027 3.12402C14.398 3.12409 14.8809 3.60683 14.8809 4.20215C14.8808 4.79741 14.398 5.28021 13.8027 5.28027C13.2074 5.28027 12.7247 4.79745 12.7246 4.20215C12.7246 3.60679 13.2074 3.12402 13.8027 3.12402Z" fill="url(#paint0_linear_3_3688)" fill-opacity="0.05"/>
<path d="M9.00195 0C11.4439 0 11.749 0.0117144 12.7119 0.0537109C13.4591 0.0690522 14.1988 0.21099 14.8984 0.473633C15.4961 0.704864 16.0389 1.05868 16.4922 1.51172C16.9456 1.96494 17.2998 2.50863 17.5312 3.10645C17.7981 3.81555 17.9405 4.56568 17.9521 5.32324C18.0081 6.28005 18.0078 6.59042 18.0078 9.0332C18.0078 11.476 17.9951 11.7812 17.9521 12.7432C17.9371 13.491 17.7961 14.2289 17.5332 14.9287C17.3014 15.5265 16.9475 16.0701 16.4941 16.5234C16.0409 16.9766 15.4979 17.3297 14.9004 17.5615C14.2006 17.8237 13.461 17.9663 12.7139 17.9814C11.759 18.0364 11.4458 18.0361 9.00391 18.0361C6.56199 18.0361 6.25693 18.0234 5.29395 17.9814C4.54548 17.9568 3.80668 17.8043 3.10938 17.5312C2.51157 17.2999 1.96813 16.9462 1.51465 16.4932C1.06117 16.04 0.706489 15.4971 0.474609 14.8994C0.211609 14.1984 0.0706641 13.4599 0.0556641 12.7119C-0.000329788 11.755 0 11.4439 0 9.00195C1.65781e-07 6.559 0.0126646 6.25398 0.0556641 5.29199C0.0702751 4.54501 0.212039 3.8059 0.474609 3.10645C0.705838 2.50847 1.06024 1.96498 1.51367 1.51172C1.96707 1.05854 2.51041 0.704605 3.1084 0.473633C3.80702 0.210348 4.54555 0.0682647 5.29199 0.0537109C6.24698 -0.000288229 6.56 0 9.00195 0ZM8.96582 1.58301C6.52899 1.58301 6.26152 1.5947 5.31055 1.6377C4.74072 1.64571 4.17605 1.75141 3.6416 1.94922C2.8528 2.25128 2.2278 2.87227 1.92285 3.66113C1.72359 4.2014 1.61881 4.77186 1.6123 5.34766C1.55931 6.31665 1.55859 6.566 1.55859 9.00293C1.55859 11.4389 1.5693 11.7072 1.6123 12.6572C1.62164 13.227 1.72632 13.7913 1.92285 14.3262C2.07369 14.7157 2.3045 15.0695 2.60059 15.3643C2.89662 15.6589 3.25141 15.8881 3.6416 16.0371C4.17578 16.2359 4.74063 16.3406 5.31055 16.3477C6.27852 16.4027 6.52799 16.4033 8.96582 16.4033C11.4018 16.4033 11.6701 16.3917 12.6201 16.3477C13.1904 16.3403 13.7553 16.2355 14.29 16.0371C14.679 15.8872 15.0323 15.657 15.3271 15.3623C15.6218 15.0677 15.8518 14.7149 16.002 14.3262C16.2013 13.7854 16.307 13.214 16.3135 12.6377V12.6387H16.3242C16.3672 11.683 16.3672 11.4207 16.3672 8.98535C16.3672 6.54844 16.3565 6.281 16.3135 5.33008C16.3042 4.76027 16.1985 4.19605 16.002 3.66113C15.8517 3.27224 15.6219 2.91883 15.3271 2.62402C15.0323 2.32922 14.6789 2.09949 14.29 1.94922C13.7554 1.7503 13.1905 1.64457 12.6201 1.6377C11.6531 1.5827 11.4028 1.58301 8.96582 1.58301ZM8.99707 4.37207C10.2234 4.37209 11.3995 4.85941 12.2666 5.72656C13.1337 6.59373 13.6211 7.76975 13.6211 8.99609C13.6211 10.2224 13.1337 11.3985 12.2666 12.2656C11.3995 13.1328 10.2234 13.6201 8.99707 13.6201C7.77073 13.6201 6.5947 13.1328 5.72754 12.2656C4.86038 11.3985 4.37305 10.2224 4.37305 8.99609C4.37305 7.76973 4.86037 6.59373 5.72754 5.72656C6.59471 4.85941 7.77072 4.37207 8.99707 4.37207ZM8.99707 5.99121C8.20037 5.99121 7.43641 6.30774 6.87305 6.87109C6.30969 7.43445 5.99316 8.19841 5.99316 8.99512C5.99318 9.79181 6.3097 10.5558 6.87305 11.1191C7.4364 11.6825 8.20039 11.999 8.99707 11.999C9.79376 11.999 10.5578 11.6825 11.1211 11.1191C11.6844 10.5558 12.001 9.79181 12.001 8.99512C12.001 8.19843 11.6844 7.43445 11.1211 6.87109C10.5578 6.30775 9.79376 5.99123 8.99707 5.99121ZM13.8027 3.12402C14.398 3.12409 14.8809 3.60683 14.8809 4.20215C14.8808 4.79741 14.398 5.28021 13.8027 5.28027C13.2074 5.28027 12.7247 4.79745 12.7246 4.20215C12.7246 3.60679 13.2074 3.12402 13.8027 3.12402Z" fill="white"/>
<defs>
<linearGradient id="paint0_linear_3_3688" x1="1.99805" y1="0.995117" x2="16.998" y2="17.4951" gradientUnits="userSpaceOnUse">
<stop stop-color="#515BD4"/>
<stop offset="0.193795" stop-color="#8134AF"/>
<stop offset="0.448404" stop-color="#DD2A7B"/>
<stop offset="0.760871" stop-color="#DEBD63"/>
<stop offset="1" stop-color="#F58529"/>
</linearGradient>
</defs>
</svg>
