<svg width="167" height="42" viewBox="0 0 167 42" fill="none" xmlns="http://www.w3.org/2000/svg">
<path d="M96.473 1.67702V18.2013C96.473 18.5715 96.1614 18.8713 95.7767 18.8713H93.6669C93.2823 18.8713 92.9707 18.5715 92.9707 18.2013V11.4193H91.5919C90.6727 11.4193 89.7617 11.5046 88.8607 11.6742C87.9589 11.8439 87.1493 12.193 86.4339 12.7205C85.7175 13.248 85.1382 14.0006 84.6969 14.9791C84.314 15.8258 84.0975 16.9116 84.0463 18.2356C84.0326 18.5917 83.7219 18.8704 83.3519 18.8704H81.2549C80.8702 18.8704 80.5586 18.5706 80.5586 18.2013V1.67702C80.5586 1.30688 80.8702 1.00708 81.2549 1.00708H83.3382C83.7228 1.00708 84.0344 1.30688 84.0344 1.67702V11.8017C84.5114 11.087 85.0505 10.5049 85.6526 10.0539C86.2539 9.60289 86.8679 9.25033 87.4956 8.99537C88.1233 8.7404 88.7419 8.56984 89.3514 8.48456C89.9618 8.39928 90.5228 8.35708 91.0354 8.35708H92.9716V1.67702C92.9716 1.30688 93.2832 1.00708 93.6679 1.00708H95.7776C96.1623 1.00708 96.4739 1.30688 96.4739 1.67702H96.473Z" fill="white"/>
<path d="M116.088 18.87H113.6C113.267 18.87 112.966 18.6749 112.84 18.3777L111.854 16.0373H109.494C108.645 16.0373 107.832 16.0672 107.055 16.127C106.276 16.1868 105.565 16.3143 104.919 16.5094C104.274 16.7055 103.712 16.9903 103.235 17.364C102.863 17.6559 102.555 18.0243 102.312 18.4709C102.176 18.7215 101.896 18.8692 101.601 18.8692H99.0813C98.7469 18.8692 98.5185 18.543 98.6446 18.2449L105.712 1.4815C105.834 1.19401 106.123 1.00586 106.446 1.00586H108.721C109.044 1.00586 109.334 1.19401 109.455 1.4815L116.523 18.2449C116.65 18.543 116.421 18.8692 116.087 18.8692L116.088 18.87ZM110.556 12.9751L107.585 5.88095L104.005 14.4047C104.801 13.8604 105.65 13.4859 106.552 13.2819C107.453 13.078 108.434 12.976 109.496 12.976H110.557L110.556 12.9751Z" fill="white"/>
<path d="M126.123 1.00684C128.192 1.00684 129.725 1.50885 130.725 2.512C131.724 3.51603 132.223 4.9535 132.223 6.82441C132.223 7.70887 132.078 8.45354 131.786 9.05754C131.494 9.66154 131.114 10.1767 130.645 10.6014C130.177 11.0269 129.642 11.3839 129.041 11.6731C128.44 11.9624 127.825 12.2305 127.198 12.4767C126.57 12.7238 125.955 12.9655 125.355 13.2038C124.754 13.442 124.218 13.7269 123.75 14.0584C123.282 14.3907 122.901 14.7854 122.61 15.2453C122.319 15.7051 122.173 16.2748 122.173 16.9553V18.2169C122.173 18.5774 121.87 18.8693 121.495 18.8693H119.377C119.003 18.8693 118.699 18.5774 118.699 18.2169V1.65919C118.699 1.29872 119.003 1.00684 119.377 1.00684H126.125H126.123ZM122.171 11.725C122.773 11.1808 123.448 10.7553 124.2 10.4493C124.952 10.1433 125.655 9.8409 126.309 9.54286C126.963 9.24569 127.511 8.89665 127.953 8.49662C128.396 8.09659 128.617 7.53919 128.617 6.82529C128.617 6.19579 128.528 5.70696 128.352 5.35793C128.175 5.00977 127.949 4.74953 127.676 4.57985C127.402 4.41016 127.101 4.30378 126.774 4.2607C126.447 4.2185 126.142 4.19652 125.859 4.19652H122.173V11.725H122.171Z" fill="white"/>
<path d="M142.063 1.00684C144.131 1.00684 145.665 1.50885 146.664 2.512C147.663 3.51603 148.163 4.9535 148.163 6.82441C148.163 7.70887 148.017 8.45354 147.725 9.05754C147.434 9.66154 147.053 10.1767 146.585 10.6014C146.116 11.0269 145.581 11.3839 144.98 11.6731C144.379 11.9624 143.764 12.2305 143.137 12.4767C142.51 12.7238 141.895 12.9655 141.294 13.2038C140.693 13.442 140.158 13.7269 139.69 14.0584C139.221 14.3907 138.841 14.7854 138.549 15.2453C138.258 15.7051 138.113 16.2748 138.113 16.9553V18.2169C138.113 18.5774 137.809 18.8693 137.435 18.8693H135.317C134.942 18.8693 134.639 18.5774 134.639 18.2169V1.65919C134.639 1.29872 134.942 1.00684 135.317 1.00684H142.065H142.063ZM138.111 11.725C138.712 11.1808 139.387 10.7553 140.139 10.4493C140.891 10.1433 141.594 9.8409 142.248 9.54286C142.902 9.24569 143.451 8.89665 143.893 8.49662C144.335 8.09659 144.556 7.53919 144.556 6.82529C144.556 6.19579 144.468 5.70696 144.291 5.35793C144.114 5.00977 143.888 4.74953 143.615 4.57985C143.341 4.41016 143.04 4.30378 142.713 4.2607C142.386 4.2185 142.081 4.19652 141.799 4.19652H138.113V11.725H138.111Z" fill="white"/>
<path d="M165.761 1.00684C166.13 1.00684 166.377 1.3717 166.229 1.697L163.495 7.69305C163.283 8.13528 163.057 8.5907 162.818 9.05842C162.58 9.52703 162.301 9.96047 161.983 10.3596C161.664 10.7596 161.303 11.0999 160.896 11.3804C160.488 11.6608 160.021 11.8358 159.491 11.9035V18.2512C159.491 18.5932 159.203 18.8701 158.847 18.8701H156.66C156.304 18.8701 156.017 18.5932 156.017 18.2512V11.9035C155.468 11.8358 154.991 11.6608 154.585 11.3804C154.177 11.0999 153.815 10.7596 153.498 10.3596C153.18 9.96047 152.901 9.52615 152.662 9.05842C152.424 8.5907 152.206 8.13616 152.013 7.69305L149.278 1.697C149.13 1.3717 149.378 1.00684 149.747 1.00684H152.164C152.475 1.00684 152.756 1.18355 152.881 1.45786L155.407 7.00464C155.495 7.20862 155.602 7.41259 155.725 7.61744C155.849 7.82141 155.99 8.00428 156.15 8.16605C156.309 8.32782 156.499 8.46409 156.72 8.57399C156.941 8.68477 157.193 8.74016 157.476 8.74016H158.033C158.316 8.74016 158.568 8.68565 158.789 8.57399C159.01 8.46321 159.2 8.32782 159.359 8.16605C159.518 8.00428 159.66 7.82141 159.783 7.61744C159.906 7.41347 160.013 7.2095 160.102 7.00464L162.628 1.45786C162.754 1.18443 163.034 1.00684 163.345 1.00684H165.762H165.761Z" fill="white"/>
<path d="M88.0582 31.6548H95.3233C95.6751 31.6548 95.9611 31.9291 95.9611 32.2684V34.7987C95.9611 35.9004 95.6677 36.9967 95.0327 37.9128C95.0281 37.919 95.0236 37.926 95.019 37.9322C94.5685 38.5784 94.002 39.149 93.3213 39.6422C92.6406 40.1354 91.8493 40.531 90.9474 40.8291C90.0456 41.1262 89.0642 41.2757 88.0034 41.2757C86.8722 41.2757 85.7629 41.084 84.6747 40.7016C83.5873 40.3192 82.6151 39.745 81.7571 38.9793C80.8992 38.2135 80.2056 37.2482 79.6748 36.0824C79.1439 34.9174 78.8789 33.5433 78.8789 31.9607C78.8789 30.7017 79.0735 29.5104 79.4619 28.3877C79.8502 27.265 80.4204 26.2785 81.1724 25.4275C81.9244 24.5773 82.8609 23.9004 83.9839 23.3983C85.1069 22.8972 86.4016 22.6458 87.8691 22.6458C88.9299 22.6458 89.9515 22.7864 90.9319 23.0669C91.9132 23.3473 92.7749 23.7606 93.5177 24.3048C94.2606 24.8499 94.8518 25.5295 95.294 26.3462C95.6403 26.9863 95.8514 27.6993 95.9263 28.4853C95.9601 28.8414 95.6723 29.1535 95.3004 29.1535H92.4743C92.1609 29.1535 91.9068 28.9284 91.8566 28.6312C91.8054 28.3297 91.7095 28.0536 91.5669 27.8013C91.3458 27.4101 91.0461 27.0786 90.666 26.8061C90.2859 26.5344 89.8391 26.3304 89.3265 26.1933C88.813 26.057 88.2565 25.9893 87.6553 25.9893C86.7881 25.9893 86.0288 26.1335 85.3746 26.4227C84.7204 26.712 84.1721 27.1164 83.7299 27.6351C83.2876 28.1539 82.956 28.7798 82.7358 29.5104C82.5146 30.2419 82.4041 31.0587 82.4041 31.9607C82.4041 33.101 82.5539 34.0664 82.8555 34.8576C83.1561 35.6489 83.5627 36.2863 84.0753 36.7716C84.5879 37.2561 85.1754 37.6051 85.8397 37.8179C86.5031 38.0306 87.1874 38.137 87.8956 38.137C89.0094 38.137 89.9908 37.9243 90.8396 37.4987C91.6885 37.0732 92.2276 36.4525 92.4578 35.6357V34.717H88.0564C87.7046 34.717 87.4186 34.4427 87.4186 34.1033V32.2676C87.4186 31.9291 87.7037 31.6539 88.0564 31.6539L88.0582 31.6548Z" fill="white"/>
<path d="M111.554 33.1848C112.774 33.5418 113.679 34.1247 114.272 34.9327C114.864 35.7415 115.161 36.6805 115.161 37.7522V40.2658C115.161 40.6113 114.87 40.8909 114.511 40.8909H112.628C112.269 40.8909 111.978 40.6113 111.978 40.2658V38.9769C111.978 38.1601 111.877 37.4586 111.673 36.8713C111.47 36.2848 111.199 35.7995 110.864 35.4171C110.528 35.0346 110.135 34.7533 109.684 34.5748C109.232 34.3963 108.751 34.3067 108.238 34.3067C107.725 34.3067 107.221 34.3963 106.78 34.5748C106.338 34.7533 105.948 35.0346 105.613 35.4171C105.277 35.7995 105.016 36.2848 104.831 36.8713C104.645 37.4586 104.552 38.1601 104.552 38.9769V40.2658C104.552 40.6113 104.262 40.8909 103.902 40.8909H101.728C101.369 40.8909 101.078 40.6113 101.078 40.2658V23.6527C101.078 23.3072 101.369 23.0276 101.728 23.0276H108.504C110.573 23.0276 112.106 23.5296 113.106 24.5328C114.104 25.5368 114.604 26.9743 114.604 28.8452C114.604 29.9679 114.308 30.8866 113.716 31.6014C113.123 32.3162 112.403 32.8437 111.554 33.1839V33.1848ZM104.552 33.8486C104.887 33.373 105.281 32.9896 105.733 32.7004C106.183 32.4111 106.647 32.1694 107.124 31.9733C107.602 31.7781 108.075 31.6032 108.543 31.4502C109.011 31.2972 109.427 31.1143 109.79 30.9016C110.152 30.6888 110.444 30.4259 110.665 30.1103C110.886 29.7956 110.997 29.3744 110.997 28.8469C110.997 28.2174 110.908 27.7286 110.732 27.3796C110.554 27.0314 110.329 26.7712 110.056 26.6015C109.781 26.4318 109.481 26.3254 109.154 26.2823C108.827 26.2401 108.521 26.2182 108.239 26.2182H104.553V33.8486H104.552Z" fill="white"/>
<path d="M120.203 40.2115V23.71C120.203 23.3337 120.52 23.0295 120.91 23.0295H122.97C123.361 23.0295 123.677 23.3346 123.677 23.71V40.2115C123.677 40.5878 123.36 40.892 122.97 40.892H120.91C120.519 40.892 120.203 40.5869 120.203 40.2115Z" fill="white"/>
<path d="M145.185 23.6545V40.2659C145.185 40.6114 144.893 40.8919 144.534 40.8919H142.42C142.124 40.8919 141.845 40.7565 141.67 40.527L132.773 28.9235V40.2659C132.773 40.6114 132.481 40.8919 132.122 40.8919H129.975C129.616 40.8919 129.324 40.6114 129.324 40.2659V23.6545C129.324 23.309 129.616 23.0286 129.975 23.0286H132.088C132.384 23.0286 132.663 23.164 132.839 23.3934L141.736 35.0224V23.6545C141.736 23.309 142.028 23.0286 142.387 23.0286H144.534C144.893 23.0286 145.185 23.309 145.185 23.6545Z" fill="white"/>
<path d="M153.59 27.8781C153.59 28.5753 153.859 29.1028 154.399 29.4607C154.938 29.8176 155.61 30.1113 156.415 30.3407C157.22 30.5702 158.091 30.7874 159.027 30.9913C159.964 31.1953 160.835 31.4933 161.64 31.8846C162.444 32.2767 163.115 32.8121 163.655 33.4926C164.194 34.1731 164.465 35.1094 164.465 36.2999C164.465 37.2019 164.288 37.9677 163.935 38.5963C163.581 39.2258 163.099 39.7401 162.489 40.1401C161.88 40.5402 161.153 40.8294 160.315 41.0079C159.474 41.1864 158.559 41.276 157.569 41.276C156.668 41.276 155.779 41.1653 154.904 40.9446C154.028 40.7239 153.242 40.3828 152.543 39.9239C151.845 39.464 151.279 38.8776 150.846 38.1629C150.518 37.6213 150.314 37.0067 150.234 36.3183C150.192 35.9561 150.489 35.6361 150.869 35.6361H152.998C153.292 35.6361 153.525 35.8427 153.595 36.1179C153.653 36.3447 153.753 36.5495 153.897 36.7333C154.135 37.0393 154.445 37.2942 154.824 37.4991C155.204 37.703 155.634 37.8525 156.111 37.9457C156.589 38.0398 157.074 38.0855 157.569 38.0855C158.064 38.0855 158.533 38.0521 158.975 37.9835C159.416 37.9158 159.801 37.8094 160.129 37.6644C160.456 37.5202 160.717 37.3329 160.911 37.1034C161.106 36.874 161.203 36.6058 161.203 36.2999C161.203 35.8242 161.047 35.4409 160.739 35.1516C160.429 34.8624 160.018 34.6153 159.505 34.4114C158.992 34.2074 158.409 34.0333 157.754 33.8882C157.1 33.7441 156.432 33.5867 155.752 33.4161C155.072 33.2464 154.404 33.0425 153.75 32.8033C153.096 32.5651 152.512 32.2503 152 31.8591C151.487 31.4678 151.076 30.9834 150.766 30.4049C150.456 29.8264 150.303 29.1204 150.303 28.287C150.303 27.3339 150.479 26.5048 150.833 25.7989C151.187 25.0929 151.668 24.5064 152.278 24.0378C152.888 23.5701 153.6 23.2211 154.413 22.9916C155.226 22.7621 156.101 22.647 157.039 22.647C159.249 22.647 160.991 23.1323 162.264 24.102C163.384 24.9557 164.012 26.1716 164.146 27.7506C164.176 28.1067 163.883 28.4144 163.511 28.4144H161.429C161.122 28.4144 160.867 28.1982 160.81 27.908C160.763 27.6733 160.682 27.4588 160.566 27.2662C160.371 26.9436 160.102 26.6754 159.756 26.4626C159.412 26.2499 159.009 26.0925 158.549 25.9905C158.09 25.8885 157.595 25.8375 157.065 25.8375C156.057 25.8375 155.225 26.016 154.572 26.3738C153.918 26.7308 153.591 27.2328 153.591 27.879L153.59 27.8781Z" fill="white"/>
<path d="M38.1052 17.6934C38.245 19.3111 38.4268 23.6473 37.0974 28.9971C36.0256 33.2638 33.6882 40.4274 30.0927 40.4274C27.9838 40.4274 27.1158 37.0126 26.1034 33.0563L26.0056 32.673C25.6072 31.145 25.2006 29.5677 24.7693 28.7122C24.6972 28.5979 24.6341 28.496 24.5702 28.394C24.5062 28.2876 24.4431 28.1821 24.3792 28.0845C23.6043 26.9556 22.2831 26.2831 20.8348 26.2831C19.3866 26.2831 18.0607 26.9556 17.2905 28.0801C17.1251 28.2964 16.9981 28.4995 16.8967 28.7202C16.448 29.6081 16.0158 31.283 15.601 32.9051L15.5672 33.0352C14.5932 36.8368 13.6703 40.4274 11.5733 40.4274C7.97776 40.4274 5.6441 33.2638 4.56864 28.9971C3.24282 23.6464 3.42557 19.3111 3.56537 17.6934L3.57359 17.5958L3.49775 17.5308C2.67631 16.7773 0 14.014 0 10.0331C0 5.09027 3.56628 0.0859375 10.3882 0.0859375C13.8905 0.0859375 16.639 0.599384 18.3285 1.02755C19.1243 1.22712 19.9503 1.32911 20.7846 1.32911C21.6188 1.32911 22.4402 1.22712 23.2407 1.02755C24.9302 0.599384 27.6787 0.0859375 31.181 0.0859375C37.9992 0.0859375 41.5691 5.09027 41.5691 10.0331C41.5691 12.6618 40.4215 15.1877 38.16 17.5387L38.0961 17.6037L38.1043 17.6934H38.1052Z" fill="white"/>
<path d="M70.2144 17.9258C70.3414 19.3967 70.5067 23.3398 69.2979 28.2061C68.3238 32.086 66.1976 38.6016 62.9274 38.6016C61.0095 38.6016 60.22 35.4963 59.299 31.8978L59.2103 31.5497C58.8485 30.1597 58.4784 28.7257 58.0855 27.9476C58.0197 27.8439 57.9622 27.7516 57.9046 27.6584C57.847 27.5617 57.7895 27.4659 57.731 27.3771C57.0265 26.3502 55.824 25.7391 54.5074 25.7391C53.1907 25.7391 51.9846 26.351 51.2837 27.3735C51.1339 27.5696 51.0178 27.7551 50.9255 27.9556C50.5171 28.7635 50.1242 30.2863 49.7468 31.7616L49.7158 31.8802C48.8295 35.3381 47.9907 38.6025 46.0837 38.6025C42.8135 38.6025 40.6918 32.0877 39.7132 28.207C38.508 23.3407 38.6734 19.3976 38.8004 17.9267L38.8077 17.8379L38.7382 17.779C37.9908 17.0932 35.5566 14.5805 35.5566 10.96C35.5566 6.46473 38.7995 1.91406 45.0046 1.91406C48.1898 1.91406 50.6898 2.38091 52.2267 2.77039C52.9504 2.95238 53.7015 3.0447 54.4608 3.0447C55.2201 3.0447 55.9666 2.95238 56.6948 2.77039C58.2317 2.38091 60.7317 1.91406 63.9169 1.91406C70.1184 1.91406 73.3649 6.46473 73.3649 10.96C73.3649 13.3505 72.3214 15.6478 70.2646 17.786L70.207 17.8449L70.2144 17.9267V17.9258Z" fill="#163C46"/>
<path d="M62.9276 40.5129C61.2116 40.5129 59.8639 39.4552 58.9218 37.3698C58.3032 36.0009 57.8537 34.2426 57.3776 32.3813L57.2625 31.9312C56.9756 30.8304 56.622 29.4703 56.3323 28.8496C56.2866 28.7775 56.2446 28.709 56.2017 28.6413L56.1843 28.6131C56.1432 28.5445 56.1021 28.476 56.0609 28.4109C55.7238 27.9335 55.1445 27.6487 54.5076 27.6487C53.8707 27.6487 53.275 27.9388 52.9424 28.4241L52.8839 28.5041C52.7971 28.6184 52.7615 28.6843 52.7405 28.7301L52.7121 28.7898C52.3896 29.4281 51.9775 31.0397 51.676 32.2169L51.644 32.3418C51.1972 34.0861 50.7339 35.8954 50.108 37.2924C49.1513 39.4289 47.7981 40.512 46.0849 40.512C43.8216 40.512 41.8589 38.8899 40.2516 35.6897C39.0994 33.395 38.2734 30.5983 37.7836 28.6562C36.6863 24.2269 36.6652 20.5053 36.7676 18.5614C35.5779 17.2866 33.5723 14.5954 33.5723 10.9582C33.5723 8.13863 34.6039 5.47997 36.4779 3.47191C38.5978 1.20097 41.5464 0 45.0067 0C48.4669 0 51.0784 0.499376 52.7341 0.918748C53.8461 1.19833 55.0613 1.20097 56.198 0.916991C57.8473 0.499377 60.5318 0 63.9181 0C67.3044 0 70.3252 1.20009 72.445 3.47103C74.32 5.47909 75.3525 8.13775 75.3525 10.9573C75.3525 13.6274 74.3081 16.1656 72.2467 18.513C72.3509 20.4437 72.339 24.1908 71.2307 28.65C70.7427 30.5931 69.9195 33.388 68.7627 35.6906C67.1554 38.8899 65.1918 40.512 62.9285 40.512L62.9276 40.5129ZM59.6172 26.6886C59.6702 26.7739 59.7241 26.86 59.7844 26.9559L59.8328 27.0323L59.873 27.1124C60.3482 28.0531 60.721 29.4862 61.1166 31.0028L61.2354 31.4687C61.5954 32.8763 61.9362 34.2065 62.3163 35.2352C62.6581 36.1574 62.9249 36.5328 63.0491 36.6717C63.7472 36.4678 65.6487 34.6021 67.3674 27.7586C68.5059 23.1771 68.3552 19.4784 68.2364 18.0928L68.1487 17.1644L68.812 16.4839C70.5161 14.7105 71.3796 12.8519 71.3796 10.9599C71.3796 7.5232 69.045 3.82446 63.9181 3.82446C60.9558 3.82446 58.6303 4.25614 57.2022 4.61749C55.3994 5.06763 53.5007 5.06323 51.728 4.61837C50.2944 4.25526 47.9699 3.82446 45.0076 3.82446C39.8806 3.82446 37.5461 7.5232 37.5461 10.9599C37.5461 13.7839 39.4612 15.7928 40.089 16.3748L40.873 17.0457L40.7825 18.0866C40.6637 19.4652 40.5093 23.1683 41.6478 27.7647C43.3574 34.5441 45.2369 36.4361 45.9469 36.6665C46.0803 36.5153 46.3562 36.1196 46.7071 35.1754C47.0982 34.1221 47.45 32.7506 47.7899 31.423L47.8219 31.299C48.2924 29.4607 48.6634 28.0795 49.1267 27.1493C49.2655 26.8539 49.4392 26.569 49.6557 26.2815C50.7293 24.7447 52.5394 23.8295 54.5094 23.8295C56.4794 23.8295 58.3179 24.7623 59.3906 26.3255L59.418 26.3659C59.4911 26.4785 59.5587 26.5901 59.619 26.6912L59.6172 26.6886Z" fill="white"/>
<path d="M62.6378 8.70242C61.3312 7.7063 59.702 8.0949 57.9733 8.50724C56.9005 8.76308 55.6853 9.05321 54.46 9.05321C53.2347 9.05321 52.0203 8.76308 50.9467 8.50724C49.2197 8.0949 47.5897 7.7063 46.283 8.70242C45.4497 9.33895 45.0449 10.3403 45.0449 11.7637C45.0449 16.4648 49.2682 20.2892 54.46 20.2892C59.6518 20.2892 63.8759 16.4648 63.8759 11.7637C63.8759 10.3403 63.4712 9.33895 62.6378 8.70242ZM54.46 16.8639C51.2208 16.8639 48.5856 14.5763 48.5856 11.7637C48.5856 11.6697 48.5893 11.5888 48.5938 11.5202C49.0196 11.5756 49.6282 11.7207 50.0997 11.8332C51.3049 12.1207 52.8052 12.4785 54.46 12.4785C56.1147 12.4785 57.616 12.1207 58.8221 11.8332C59.2004 11.7426 59.8848 11.5791 60.327 11.5193C60.3316 11.5879 60.3352 11.6688 60.3352 11.7637C60.3352 14.5763 57.7001 16.8639 54.46 16.8639Z" fill="white"/>
<path d="M20.7864 18.2737C15.675 18.2737 11.5312 14.5811 11.5312 10.0261C11.5312 5.471 15.675 8.81806 20.7864 8.81806C25.8978 8.81806 30.0416 5.471 30.0416 10.0261C30.0416 14.5811 25.8978 18.2737 20.7864 18.2737Z" fill="#163C46"/>
</svg>
