<svg width="67" height="17" viewBox="0 0 67 17" fill="none" xmlns="http://www.w3.org/2000/svg">
<path d="M38.4013 0.672607V7.30261C38.4013 7.45112 38.2773 7.57141 38.1242 7.57141H37.2843C37.1312 7.57141 37.0072 7.45112 37.0072 7.30261V4.58147H36.4583C36.0924 4.58147 35.7298 4.61569 35.3712 4.68377C35.0122 4.75185 34.6899 4.8919 34.4051 5.10355C34.12 5.3152 33.8894 5.61716 33.7137 6.00977C33.5613 6.34947 33.4751 6.78513 33.4547 7.31637C33.4493 7.45924 33.3256 7.57106 33.1783 7.57106H32.3436C32.1904 7.57106 32.0664 7.45077 32.0664 7.30261V0.672607C32.0664 0.524097 32.1904 0.403809 32.3436 0.403809H33.1728C33.326 0.403809 33.45 0.524097 33.45 0.672607V4.73492C33.6399 4.44813 33.8545 4.21461 34.0941 4.03365C34.3335 3.85268 34.5779 3.71123 34.8278 3.60893C35.0776 3.50663 35.3239 3.4382 35.5665 3.40398C35.8094 3.36976 36.0328 3.35283 36.2368 3.35283H37.0075V0.672607C37.0075 0.524097 37.1316 0.403809 37.2847 0.403809H38.1245C38.2776 0.403809 38.4017 0.524097 38.4017 0.672607H38.4013Z" fill="white"/>
<path d="M46.2094 7.57093H45.2193C45.0866 7.57093 44.9669 7.49261 44.9167 7.37338L44.5243 6.43435H43.5848C43.2469 6.43435 42.9232 6.44635 42.6136 6.47033C42.3037 6.49432 42.0208 6.54547 41.7636 6.62378C41.5068 6.70245 41.2831 6.81674 41.0933 6.96666C40.9453 7.08377 40.8227 7.23158 40.7259 7.41078C40.6717 7.51131 40.5601 7.57057 40.443 7.57057H39.4398C39.3067 7.57057 39.2158 7.4397 39.266 7.32012L42.0793 0.59416C42.1277 0.47881 42.243 0.40332 42.3714 0.40332H43.2771C43.4055 0.40332 43.5211 0.47881 43.5691 0.59416L46.3829 7.32012C46.4331 7.4397 46.3421 7.57057 46.209 7.57057L46.2094 7.57093ZM44.0074 5.20571L42.825 2.35934L41.3999 5.77929C41.7167 5.56093 42.0546 5.41066 42.4136 5.32882C42.7722 5.24698 43.1628 5.20606 43.5855 5.20606H44.0078L44.0074 5.20571Z" fill="white"/>
<path d="M50.2042 0.403809C51.0277 0.403809 51.638 0.605231 52.0359 1.00772C52.4335 1.41057 52.6324 1.98732 52.6324 2.73798C52.6324 3.09285 52.5746 3.39163 52.4582 3.63397C52.3422 3.87632 52.1909 4.08303 52.0043 4.25341C51.8177 4.42414 51.6049 4.56736 51.3656 4.68342C51.1263 4.79947 50.8815 4.90706 50.632 5.00583C50.3821 5.10496 50.1373 5.20197 49.8984 5.29756C49.659 5.39316 49.4459 5.50745 49.2597 5.64044C49.0731 5.77378 48.9218 5.93217 48.8057 6.11666C48.6897 6.30115 48.6319 6.52973 48.6319 6.80276V7.30896C48.6319 7.45359 48.5111 7.57071 48.362 7.57071H47.5189C47.3698 7.57071 47.249 7.45359 47.249 7.30896V0.665551C47.249 0.520922 47.3698 0.403809 47.5189 0.403809H50.205H50.2042ZM48.6312 4.70423C48.8705 4.48587 49.1393 4.31514 49.4386 4.19238C49.738 4.06963 50.0177 3.94828 50.2781 3.8287C50.5385 3.70946 50.7567 3.56942 50.9328 3.40892C51.1088 3.24842 51.1968 3.02477 51.1968 2.73833C51.1968 2.48576 51.1616 2.28963 51.0914 2.14959C51.0208 2.0099 50.931 1.90548 50.8222 1.8374C50.7131 1.76932 50.5934 1.72663 50.4632 1.70935C50.333 1.69242 50.2115 1.6836 50.0991 1.6836H48.6319V4.70423H48.6312Z" fill="white"/>
<path d="M56.549 0.403809C57.3724 0.403809 57.9828 0.605231 58.3807 1.00772C58.7782 1.41057 58.9772 1.98732 58.9772 2.73798C58.9772 3.09285 58.9193 3.39163 58.8029 3.63397C58.6869 3.87632 58.5356 4.08303 58.349 4.25341C58.1624 4.42414 57.9497 4.56736 57.7103 4.68342C57.471 4.79947 57.2262 4.90706 56.9767 5.00583C56.7268 5.10496 56.482 5.20197 56.2431 5.29756C56.0038 5.39316 55.7906 5.50745 55.6044 5.64044C55.4178 5.77378 55.2665 5.93217 55.1505 6.11666C55.0344 6.30115 54.9766 6.52973 54.9766 6.80276V7.30896C54.9766 7.45359 54.8559 7.57071 54.7067 7.57071H53.8636C53.7145 7.57071 53.5938 7.45359 53.5938 7.30896V0.665551C53.5938 0.520922 53.7145 0.403809 53.8636 0.403809H56.5497H56.549ZM54.9759 4.70423C55.2152 4.48587 55.484 4.31514 55.7833 4.19238C56.0827 4.06963 56.3624 3.94828 56.6228 3.8287C56.8832 3.70946 57.1015 3.56942 57.2775 3.40892C57.4535 3.24842 57.5416 3.02477 57.5416 2.73833C57.5416 2.48576 57.5063 2.28963 57.4361 2.14959C57.3655 2.0099 57.2757 1.90548 57.1669 1.8374C57.0578 1.76932 56.9382 1.72663 56.8079 1.70935C56.6777 1.69242 56.5562 1.6836 56.4439 1.6836H54.9766V4.70423H54.9759Z" fill="white"/>
<path d="M65.9818 0.403809C66.1287 0.403809 66.2273 0.550201 66.1684 0.680719L65.0798 3.0865C64.9954 3.26394 64.9055 3.44666 64.8106 3.63433C64.7157 3.82235 64.6047 3.99625 64.4782 4.1564C64.3512 4.31691 64.2072 4.45342 64.0453 4.56595C63.8831 4.67848 63.6969 4.74868 63.4859 4.77584V7.32272C63.4859 7.45994 63.3714 7.57106 63.2299 7.57106H62.3591C62.2177 7.57106 62.1031 7.45994 62.1031 7.32272V4.77584C61.8848 4.74868 61.695 4.67848 61.5331 4.56595C61.3709 4.45342 61.2269 4.31691 61.1003 4.1564C60.9737 3.99625 60.8628 3.82199 60.7679 3.63433C60.6729 3.44666 60.5864 3.26429 60.5093 3.0865L59.4206 0.680719C59.3617 0.550201 59.4603 0.403809 59.6072 0.403809H60.5696C60.6933 0.403809 60.8053 0.474711 60.8548 0.58477L61.8605 2.81029C61.8954 2.89213 61.938 2.97397 61.9871 3.05616C62.0362 3.138 62.0925 3.21138 62.1562 3.27628C62.2195 3.34119 62.2951 3.39587 62.3831 3.43996C62.4712 3.48441 62.5712 3.50663 62.6839 3.50663H62.9058C63.0182 3.50663 63.1186 3.48476 63.2066 3.43996C63.2946 3.39551 63.3703 3.34119 63.4336 3.27628C63.4969 3.21138 63.5532 3.138 63.6023 3.05616C63.6514 2.97433 63.694 2.89249 63.7293 2.81029L64.735 0.58477C64.7848 0.475064 64.8964 0.403809 65.0201 0.403809H65.9825H65.9818Z" fill="white"/>
<path d="M35.0524 12.7006H37.9443C38.0843 12.7006 38.1982 12.8107 38.1982 12.9468V13.9621C38.1982 14.4041 38.0814 14.8439 37.8286 15.2115C37.8268 15.214 37.825 15.2168 37.8232 15.2193C37.6439 15.4785 37.4184 15.7075 37.1474 15.9054C36.8764 16.1033 36.5614 16.262 36.2024 16.3816C35.8435 16.5008 35.4528 16.5608 35.0305 16.5608C34.5803 16.5608 34.1387 16.4839 33.7055 16.3304C33.2727 16.177 32.8857 15.9466 32.5442 15.6394C32.2026 15.3321 31.9266 14.9448 31.7152 14.4771C31.5039 14.0097 31.3984 13.4583 31.3984 12.8234C31.3984 12.3182 31.4759 11.8402 31.6305 11.3898C31.7851 10.9393 32.012 10.5435 32.3114 10.202C32.6107 9.86094 32.9835 9.58932 33.4305 9.38789C33.8775 9.18683 34.3929 9.08594 34.9771 9.08594C35.3994 9.08594 35.806 9.14238 36.1963 9.25491C36.5869 9.36743 36.9299 9.53323 37.2256 9.75158C37.5213 9.97029 37.7566 10.243 37.9327 10.5707C38.0705 10.8275 38.1545 11.1136 38.1844 11.4289C38.1978 11.5718 38.0832 11.697 37.9352 11.697H36.8102C36.6855 11.697 36.5843 11.6067 36.5643 11.4875C36.544 11.3665 36.5058 11.2557 36.449 11.1545C36.361 10.9975 36.2417 10.8645 36.0904 10.7552C35.9391 10.6462 35.7613 10.5643 35.5572 10.5093C35.3528 10.4546 35.1313 10.4275 34.892 10.4275C34.5468 10.4275 34.2445 10.4853 33.9841 10.6014C33.7237 10.7174 33.5055 10.8797 33.3294 11.0878C33.1534 11.2959 33.0214 11.5471 32.9337 11.8402C32.8457 12.1337 32.8017 12.4614 32.8017 12.8234C32.8017 13.2809 32.8613 13.6682 32.9813 13.9857C33.101 14.3032 33.2629 14.5589 33.4669 14.7536C33.671 14.948 33.9048 15.088 34.1693 15.1734C34.4333 15.2588 34.7057 15.3015 34.9876 15.3015C35.431 15.3015 35.8216 15.2161 36.1595 15.0454C36.4974 14.8746 36.712 14.6256 36.8037 14.2979V13.9292H35.0516C34.9116 13.9292 34.7978 13.8192 34.7978 13.683V12.9465C34.7978 12.8107 34.9112 12.7003 35.0516 12.7003L35.0524 12.7006Z" fill="white"/>
<path d="M44.4054 13.3146C44.891 13.4578 45.2514 13.6917 45.4875 14.0159C45.7232 14.3404 45.841 14.7172 45.841 15.1472V16.1557C45.841 16.2943 45.7253 16.4065 45.5824 16.4065H44.8328C44.6898 16.4065 44.5742 16.2943 44.5742 16.1557V15.6386C44.5742 15.3109 44.5338 15.0294 44.4527 14.7937C44.3719 14.5584 44.2643 14.3637 44.1308 14.2103C43.9969 14.0568 43.8405 13.9439 43.6609 13.8723C43.4812 13.8007 43.2895 13.7647 43.0855 13.7647C42.8814 13.7647 42.6806 13.8007 42.505 13.8723C42.3289 13.9439 42.174 14.0568 42.0405 14.2103C41.9066 14.3637 41.803 14.5584 41.7291 14.7937C41.6553 15.0294 41.6182 15.3109 41.6182 15.6386V16.1557C41.6182 16.2943 41.5026 16.4065 41.3596 16.4065H40.494C40.351 16.4065 40.2354 16.2943 40.2354 16.1557V9.49007C40.2354 9.35143 40.351 9.23926 40.494 9.23926H43.1913C44.0148 9.23926 44.6251 9.44068 45.023 9.84317C45.4205 10.246 45.6195 10.8228 45.6195 11.5734C45.6195 12.0239 45.5016 12.3925 45.266 12.6793C45.0299 12.9661 44.7433 13.1778 44.4054 13.3143V13.3146ZM41.6182 13.581C41.7517 13.3901 41.9085 13.2363 42.0881 13.1203C42.2675 13.0042 42.4522 12.9072 42.6421 12.8285C42.8323 12.7502 43.0204 12.68 43.2069 12.6186C43.3932 12.5573 43.5587 12.4839 43.7031 12.3985C43.8474 12.3132 43.9635 12.2077 44.0515 12.081C44.1395 11.9548 44.1835 11.7858 44.1835 11.5741C44.1835 11.3216 44.1482 11.1254 44.078 10.9854C44.0075 10.8457 43.9176 10.7413 43.8089 10.6732C43.6998 10.6051 43.5801 10.5624 43.4499 10.5452C43.3197 10.5282 43.1982 10.5194 43.0858 10.5194H41.6186V13.581H41.6182Z" fill="white"/>
<path d="M47.8477 16.1341V9.51327C47.8477 9.36229 47.9739 9.24023 48.1292 9.24023H48.949C49.1047 9.24023 49.2305 9.36264 49.2305 9.51327V16.1341C49.2305 16.2851 49.1043 16.4071 48.949 16.4071H48.1292C47.9735 16.4071 47.8477 16.2847 47.8477 16.1341Z" fill="white"/>
<path d="M57.792 9.49091V16.1558C57.792 16.2945 57.6759 16.407 57.533 16.407H56.6913C56.5735 16.407 56.4626 16.3527 56.3927 16.2606L52.8512 11.605V16.1558C52.8512 16.2945 52.7352 16.407 52.5922 16.407H51.7375C51.5945 16.407 51.4785 16.2945 51.4785 16.1558V9.49091C51.4785 9.35227 51.5945 9.23975 51.7375 9.23975H52.5788C52.6966 9.23975 52.8075 9.29407 52.8777 9.38614L56.4193 14.052V9.49091C56.4193 9.35227 56.5353 9.23975 56.6782 9.23975H57.533C57.6759 9.23975 57.792 9.35227 57.792 9.49091Z" fill="white"/>
<path d="M61.1379 11.1853C61.1379 11.465 61.2452 11.6767 61.4602 11.8203C61.6748 11.9635 61.9421 12.0813 62.2626 12.1734C62.583 12.2654 62.9296 12.3526 63.3024 12.4344C63.6752 12.5163 64.0219 12.6358 64.3423 12.7928C64.6624 12.9501 64.9297 13.165 65.1447 13.438C65.3593 13.711 65.4669 14.0867 65.4669 14.5643C65.4669 14.9263 65.3964 15.2335 65.256 15.4857C65.1152 15.7383 64.9232 15.9447 64.6806 16.1052C64.438 16.2657 64.1488 16.3817 63.8149 16.4533C63.4803 16.5249 63.1162 16.5609 62.7219 16.5609C62.3633 16.5609 62.0094 16.5165 61.661 16.4279C61.3125 16.3394 60.9994 16.2025 60.7215 16.0184C60.4436 15.8339 60.2181 15.5986 60.0457 15.3118C59.9151 15.0945 59.834 14.848 59.8024 14.5717C59.7856 14.4264 59.9038 14.298 60.0548 14.298H60.9022C61.0194 14.298 61.1121 14.3809 61.1401 14.4913C61.163 14.5823 61.203 14.6645 61.2601 14.7382C61.3551 14.861 61.4784 14.9633 61.6293 15.0455C61.7806 15.1273 61.9516 15.1873 62.1414 15.2247C62.3317 15.2624 62.5248 15.2808 62.7219 15.2808C62.9191 15.2808 63.1057 15.2674 63.2817 15.2399C63.4574 15.2127 63.6105 15.17 63.7411 15.1118C63.8713 15.054 63.975 14.9788 64.0524 14.8868C64.1299 14.7947 64.1685 14.6871 64.1685 14.5643C64.1685 14.3735 64.1066 14.2197 63.9837 14.1036C63.8604 13.9876 63.6967 13.8885 63.4927 13.8066C63.2882 13.7248 63.0562 13.6549 62.7958 13.5967C62.5354 13.5389 62.2695 13.4757 61.9989 13.4073C61.7279 13.3392 61.462 13.2574 61.202 13.1614C60.9415 13.0658 60.7091 12.9396 60.5051 12.7826C60.301 12.6256 60.1374 12.4312 60.014 12.1991C59.8907 11.967 59.8296 11.6838 59.8296 11.3493C59.8296 10.967 59.8998 10.6343 60.0406 10.351C60.1814 10.0678 60.373 9.8325 60.616 9.64448C60.8586 9.45682 61.1419 9.31677 61.4657 9.2247C61.7894 9.13264 62.1378 9.08643 62.511 9.08643C63.3908 9.08643 64.0841 9.28115 64.5907 9.67023C65.0367 10.0128 65.2865 10.5006 65.34 11.1342C65.352 11.277 65.2352 11.4005 65.0872 11.4005H64.2587C64.1361 11.4005 64.035 11.3137 64.0121 11.1973C63.9935 11.1031 63.9611 11.017 63.9149 10.9398C63.8375 10.8103 63.7302 10.7027 63.5927 10.6174C63.4556 10.532 63.2952 10.4689 63.1122 10.4279C62.9293 10.387 62.7321 10.3666 62.5212 10.3666C62.12 10.3666 61.789 10.4382 61.5289 10.5817C61.2685 10.725 61.1383 10.9264 61.1383 11.1857L61.1379 11.1853Z" fill="white"/>
<path d="M15.1682 7.09927C15.2238 7.74834 15.2962 9.48812 14.767 11.6346C14.3404 13.3465 13.41 16.2208 11.9787 16.2208C11.1393 16.2208 10.7937 14.8507 10.3907 13.2633L10.3518 13.1095C10.1932 12.4964 10.0314 11.8636 9.85971 11.5203C9.83097 11.4745 9.80588 11.4336 9.78042 11.3926C9.75496 11.3499 9.72986 11.3076 9.7044 11.2685C9.39597 10.8155 8.87003 10.5457 8.29353 10.5457C7.71704 10.5457 7.18928 10.8155 6.88266 11.2667C6.81683 11.3535 6.76627 11.435 6.7259 11.5235C6.54731 11.8798 6.37528 12.5518 6.21015 13.2026L6.19669 13.2548C5.80896 14.7801 5.44161 16.2208 4.60687 16.2208C3.17564 16.2208 2.2467 13.3465 1.8186 11.6346C1.29084 9.48776 1.36358 7.74834 1.41923 7.09927L1.42251 7.06011L1.39232 7.03401C1.06533 6.7317 0 5.62299 0 4.02572C0 2.04254 1.4196 0.034668 4.13513 0.034668C5.52926 0.034668 6.62333 0.240677 7.29585 0.412468C7.61265 0.492543 7.94145 0.533462 8.27353 0.533462C8.6056 0.533462 8.93259 0.492543 9.25121 0.412468C9.92372 0.240677 11.0178 0.034668 12.4119 0.034668C15.126 0.034668 16.5471 2.04254 16.5471 4.02572C16.5471 5.08046 16.0902 6.09392 15.19 7.03718L15.1646 7.06329L15.1678 7.09927H15.1682Z" fill="white"/>
<path d="M27.9492 7.19242C27.9998 7.78258 28.0656 9.36468 27.5844 11.3172C27.1967 12.8739 26.3503 15.4881 25.0485 15.4881C24.2851 15.4881 23.9708 14.2422 23.6042 12.7984L23.5689 12.6587C23.4249 12.101 23.2776 11.5256 23.1212 11.2135C23.095 11.1718 23.0721 11.1348 23.0492 11.0974C23.0263 11.0586 23.0033 11.0202 22.9801 10.9845C22.6996 10.5725 22.221 10.3273 21.6969 10.3273C21.1727 10.3273 20.6926 10.5729 20.4137 10.9831C20.354 11.0618 20.3078 11.1362 20.2711 11.2166C20.1085 11.5408 19.9521 12.1518 19.8019 12.7437L19.7895 12.7913C19.4367 14.1787 19.1028 15.4885 18.3437 15.4885C17.042 15.4885 16.1974 12.8746 15.8079 11.3175C15.3281 9.36503 15.394 7.78293 15.4445 7.19277L15.4474 7.15714L15.4198 7.13351C15.1223 6.85836 14.1533 5.85019 14.1533 4.39755C14.1533 2.59392 15.4442 0.768066 17.9142 0.768066C19.1821 0.768066 20.1772 0.955378 20.789 1.11165C21.0771 1.18467 21.3761 1.22171 21.6783 1.22171C21.9806 1.22171 22.2777 1.18467 22.5676 1.11165C23.1794 0.955378 24.1745 0.768066 25.4424 0.768066C27.911 0.768066 29.2033 2.59392 29.2033 4.39755C29.2033 5.35669 28.7879 6.27843 27.9692 7.13633L27.9463 7.15997L27.9492 7.19277V7.19242Z" fill="#3795AF"/>
<path d="M25.0485 16.2549C24.3654 16.2549 23.8289 15.8305 23.4539 14.9938C23.2077 14.4446 23.0288 13.7391 22.8393 12.9923L22.7934 12.8117C22.6792 12.37 22.5385 11.8243 22.4232 11.5753C22.405 11.5463 22.3883 11.5188 22.3712 11.4917L22.3642 11.4804C22.3479 11.4529 22.3315 11.4253 22.3151 11.3992C22.1809 11.2077 21.9503 11.0934 21.6968 11.0934C21.4433 11.0934 21.2062 11.2098 21.0738 11.4045L21.0505 11.4366C21.0159 11.4825 21.0018 11.5089 20.9934 11.5273L20.9821 11.5513C20.8537 11.8074 20.6897 12.454 20.5697 12.9263L20.5569 12.9764C20.3791 13.6763 20.1947 14.4022 19.9455 14.9628C19.5647 15.82 19.026 16.2545 18.3441 16.2545C17.4431 16.2545 16.6619 15.6037 16.0221 14.3197C15.5634 13.399 15.2346 12.2769 15.0397 11.4977C14.6028 9.72049 14.5945 8.22728 14.6352 7.44734C14.1616 6.93585 13.3633 5.85607 13.3633 4.39672C13.3633 3.26544 13.7739 2.19871 14.5199 1.39302C15.3637 0.481861 16.5375 0 17.9149 0C19.2923 0 20.3318 0.200364 20.9908 0.368627C21.4335 0.480803 21.9172 0.481862 22.3697 0.367922C23.0262 0.200364 24.0948 0 25.4428 0C26.7907 0 27.9932 0.481508 28.837 1.39267C29.5834 2.19836 29.9944 3.26509 29.9944 4.39637C29.9944 5.46769 29.5786 6.48608 28.7581 7.42794C28.7995 8.20259 28.7948 9.70602 28.3536 11.4952C28.1594 12.2748 27.8317 13.3962 27.3712 14.32C26.7314 15.6037 25.9498 16.2545 25.0489 16.2545L25.0485 16.2549ZM23.7307 10.7082C23.7518 10.7424 23.7733 10.777 23.7973 10.8154L23.8166 10.8461L23.8326 10.8782C24.0217 11.2557 24.1701 11.8307 24.3276 12.4392L24.3749 12.6261C24.5182 13.1909 24.6539 13.7246 24.8052 14.1373C24.9412 14.5074 25.0474 14.658 25.0969 14.7137C25.3748 14.6319 26.1317 13.8833 26.8158 11.1375C27.269 9.2993 27.209 7.81526 27.1617 7.25932L27.1268 6.88681L27.3908 6.61378C28.0692 5.90228 28.4129 5.15656 28.4129 4.39743C28.4129 3.01852 27.4836 1.53448 25.4428 1.53448C24.2636 1.53448 23.3379 1.70768 22.7694 1.85266C22.0518 2.03327 21.296 2.03151 20.5904 1.85302C20.0197 1.70733 19.0944 1.53448 17.9152 1.53448C15.8744 1.53448 14.9451 3.01852 14.9451 4.39743C14.9451 5.53048 15.7075 6.33652 15.9573 6.57004L16.2694 6.83919L16.2334 7.25685C16.1861 7.80997 16.1246 9.29577 16.5778 11.14C17.2584 13.8601 18.0065 14.6192 18.2891 14.7116C18.3422 14.6509 18.4521 14.4922 18.5917 14.1133C18.7474 13.6907 18.8875 13.1404 19.0228 12.6078L19.0355 12.558C19.2228 11.8204 19.3705 11.2663 19.5549 10.893C19.6102 10.7745 19.6793 10.6602 19.7655 10.5449C20.1928 9.92826 20.9134 9.56104 21.6975 9.56104C22.4817 9.56104 23.2135 9.93531 23.6405 10.5625L23.6514 10.5787C23.6805 10.6239 23.7075 10.6687 23.7315 10.7093L23.7307 10.7082Z" fill="white"/>
<path d="M24.9337 3.49131C24.4136 3.09164 23.7651 3.24756 23.0769 3.413C22.6499 3.51565 22.1662 3.63206 21.6784 3.63206C21.1907 3.63206 20.7073 3.51565 20.2799 3.413C19.5925 3.24756 18.9436 3.09164 18.4235 3.49131C18.0918 3.7467 17.9307 4.14849 17.9307 4.7196C17.9307 6.60577 19.6118 8.14025 21.6784 8.14025C23.7451 8.14025 25.4266 6.60577 25.4266 4.7196C25.4266 4.14849 25.2654 3.7467 24.9337 3.49131ZM21.6784 6.76592C20.389 6.76592 19.3401 5.84806 19.3401 4.7196C19.3401 4.68185 19.3415 4.6494 19.3433 4.62188C19.5128 4.64411 19.7551 4.70231 19.9428 4.74747C20.4225 4.86282 21.0197 5.00639 21.6784 5.00639C22.3371 5.00639 22.9347 4.86282 23.4148 4.74747C23.5654 4.71113 23.8378 4.64552 24.0139 4.62153C24.0157 4.64905 24.0171 4.6815 24.0171 4.7196C24.0171 5.84806 22.9682 6.76592 21.6784 6.76592Z" fill="white"/>
<path d="M8.27396 7.33192C6.23931 7.33192 4.58984 5.85035 4.58984 4.02274C4.58984 2.19512 6.23931 3.53805 8.27396 3.53805C10.3086 3.53805 11.9581 2.19512 11.9581 4.02274C11.9581 5.85035 10.3086 7.33192 8.27396 7.33192Z" fill="#3795AF"/>
</svg>
