<svg width="11" height="19" viewBox="0 0 11 19" fill="none" xmlns="http://www.w3.org/2000/svg">
<path d="M7.29688 13.623L10.0225 16.2588C10.5589 16.8381 10.5589 17.6872 10.0225 18.2236C9.44218 18.8028 8.5474 18.8029 8.10059 18.2236L5.375 15.543L2.73828 18.2236C2.47065 18.4912 2.11271 18.6249 1.70996 18.625C1.39752 18.625 1.03996 18.4903 0.726562 18.2236C0.190138 17.6872 0.190138 16.8381 0.726562 16.2578L3.49707 13.6221C2.49648 13.3258 1.53666 12.9063 0.639648 12.373C-0.0311155 12.0157 -0.164923 11.1229 0.192383 10.4521C0.639211 9.7824 1.4437 9.60408 2.15918 10.0508C3.128 10.642 4.24101 10.955 5.37598 10.9551C6.51107 10.9551 7.62483 10.6421 8.59375 10.0508C9.30922 9.60421 10.1576 9.78243 10.5596 10.4521C10.9625 11.1228 10.7821 12.0148 10.1562 12.373C9.30836 12.9094 8.32478 13.3105 7.29688 13.623ZM5.375 0C8.10094 2.92165e-05 10.2012 2.1889 10.2012 4.86914C10.1964 6.14042 9.68693 7.35783 8.78516 8.25391C7.88302 9.15009 6.66126 9.65216 5.38965 9.64844L5.37402 9.64746C2.73864 9.64746 0.548005 7.45879 0.547852 4.86914C0.547852 2.18982 2.73859 0 5.375 0ZM5.37402 2.81445C4.25826 2.81445 3.40918 3.75249 3.40918 4.87012C3.40934 5.98572 4.25841 6.83496 5.375 6.83496C6.53634 6.83493 7.34067 5.98571 7.34082 4.87012C7.34175 3.75156 6.53643 2.81446 5.37402 2.81445Z" fill="white"/>
</svg>
