<svg width="17" height="17" viewBox="0 0 17 17" fill="none" xmlns="http://www.w3.org/2000/svg">
<path fill-rule="evenodd" clip-rule="evenodd" d="M6.12452 4.3176C5.95969 3.92288 5.83472 3.90788 5.58503 3.89778C5.50003 3.89287 5.40534 3.88795 5.30028 3.88795C4.97542 3.88795 4.63582 3.98291 4.43089 4.19276C4.1812 4.44763 3.56163 5.04223 3.56163 6.26145C3.56163 7.4808 4.45081 8.66004 4.57074 8.82512C4.69572 8.98981 6.30434 11.5284 8.80215 12.563C10.7554 13.3725 11.335 13.2975 11.7795 13.2026C12.429 13.0628 13.2433 12.5828 13.4482 12.0033C13.653 11.4236 13.653 10.9289 13.593 10.824C13.5331 10.719 13.3681 10.6593 13.1184 10.5342C12.8687 10.4092 11.6547 9.80953 11.4249 9.72958C11.2001 9.64471 10.9853 9.67473 10.8156 9.91459C10.5757 10.2494 10.341 10.5893 10.1511 10.7941C10.0013 10.954 9.75641 10.974 9.55161 10.889C9.27682 10.7743 8.50757 10.5041 7.55836 9.65972C6.82391 9.00522 6.3244 8.19081 6.17963 7.94591C6.03473 7.69609 6.16462 7.55105 6.27951 7.41625C6.40448 7.26126 6.52428 7.15142 6.64913 7.00639C6.7741 6.86149 6.84396 6.78659 6.92391 6.61659C7.00891 6.45177 6.94888 6.28177 6.88898 6.15679C6.82895 6.03155 6.32944 4.8122 6.12452 4.3176ZM8.49748 0C3.81159 0 0 3.81265 0 8.49987C0 10.3587 0.599516 12.0828 1.61859 13.4819L0.559406 16.6401L3.82659 15.5959C5.17039 16.4854 6.77397 17 8.50252 17C13.1884 17 17 13.1871 17 8.50013C17 3.81291 13.1884 0.000265625 8.50252 0.000265625H8.49761L8.49748 0Z" fill="#3795AF"/>
</svg>
