<svg width="18" height="13" viewBox="0 0 18 13" fill="none" xmlns="http://www.w3.org/2000/svg">
<path d="M17.6342 1.98134C17.5317 1.60127 17.3315 1.25465 17.0535 0.975986C16.7755 0.697325 16.4293 0.49634 16.0495 0.393036C14.641 0.00630231 9.0064 6.83215e-06 9.0064 6.83215e-06C9.0064 6.83215e-06 3.37268 -0.00628902 1.96335 0.363357C1.58374 0.471414 1.23829 0.675241 0.96015 0.95527C0.682011 1.2353 0.480528 1.58213 0.375043 1.96246C0.00359901 3.37089 1.31773e-06 6.29208 1.31773e-06 6.29208C1.31773e-06 6.29208 -0.00359619 9.22766 0.36515 10.6217C0.572008 11.3925 1.17909 12.0013 1.95076 12.2091C3.37358 12.5958 8.99291 12.6021 8.99291 12.6021C8.99291 12.6021 14.6275 12.6084 16.036 12.2397C16.416 12.1366 16.7624 11.936 17.0412 11.6579C17.3199 11.3799 17.5212 11.0338 17.6252 10.6541C17.9975 9.24654 18.0002 6.32625 18.0002 6.32625C18.0002 6.32625 18.0182 3.38977 17.6342 1.98134ZM7.20405 8.99832L7.20854 3.60203L11.8916 6.30467L7.20405 8.99832Z" fill="#3795AF"/>
</svg>
